<svg xmlns="http://www.w3.org/2000/svg" viewBox="0 0 948 948" width="948" height="948">
	<style>
		tspan { white-space:pre }
		.shp0 { fill: #0a2a30 } 
	</style>
	<g id="Layer">
		<g id="Layer">
			<g id="Layer">
				<path id="Layer" class="shp0" d="M566.83 2.9L473.69 52.16L380.24 2.73C362.28 -6.77 341.76 10.08 347.59 29.54L398.27 198.74C423.16 190.96 448.35 187.05 473.69 187.05C498.68 187.05 523.53 190.86 548.09 198.43L599.44 29.81C605.38 10.33 584.83 -6.63 566.83 2.9Z" />
				<path id="Layer" fill-rule="evenodd" class="shp0" d="M473.69 947.38C272.87 947.38 110.07 903.01 110.07 702.19C110.07 501.37 272.87 217.05 473.69 217.05C674.51 217.05 837.31 501.37 837.31 702.19C837.31 903.01 674.51 947.38 473.69 947.38ZM588.25 650.59C588.25 553.48 450.6 551.35 450.6 510.8C450.6 489.46 461.8 483.05 484.74 483.05C499.55 483.05 512.56 487.86 526.24 497.46C534.64 503.36 546.18 501.81 552.91 494.05L573.05 470.83C580.39 462.36 579.31 449.57 570.74 442.35C552.51 426.98 531.19 415.71 505.02 411.56L505.02 377.13C505.02 366.09 496.07 357.13 485.02 357.13L465.26 357.13C454.22 357.13 445.26 366.09 445.26 377.13L445.26 412.63C393.51 423.83 363.09 461.18 363.09 515.07C363.09 608.44 500.75 614.31 500.75 656.99C500.75 677.8 490.08 686.87 463.4 686.87C445.38 686.87 427.35 681.35 405.99 668.08C396.73 662.33 384.55 665.18 378.68 674.38L360.1 703.5C354.3 712.6 356.89 724.95 365.88 730.91C390.53 747.26 420.39 756.38 445.26 759.43L445.26 791.91C445.26 803.44 454.61 812.79 466.14 812.79L484.14 812.79C495.67 812.79 505.02 803.44 505.02 791.91L505.02 756.23C561.04 742.9 588.25 702.35 588.25 650.59Z" />
			</g>
		</g>
	</g>
	<g id="Layer">
	</g>
	<g id="Layer">
	</g>
	<g id="Layer">
	</g>
	<g id="Layer">
	</g>
	<g id="Layer">
	</g>
	<g id="Layer">
	</g>
	<g id="Layer">
	</g>
	<g id="Layer">
	</g>
	<g id="Layer">
	</g>
	<g id="Layer">
	</g>
	<g id="Layer">
	</g>
	<g id="Layer">
	</g>
	<g id="Layer">
	</g>
	<g id="Layer">
	</g>
	<g id="Layer">
	</g>
</svg>